<?xml version="1.0" encoding="utf-8"?>
<!-- Generator: Adobe Illustrator 25.2.3, SVG Export Plug-In . SVG Version: 6.00 Build 0)  -->
<svg version="1.1" id="Слой_1" xmlns="http://www.w3.org/2000/svg" xmlns:xlink="http://www.w3.org/1999/xlink" x="0px" y="0px"
	 viewBox="0 0 112.5 32" style="enable-background:new 0 0 112.5 32;" xml:space="preserve">
<style type="text/css">
	.st0{fill:#FFFFFF;}
</style>
<path class="st0" d="M19.9,1.6C8.9,1.6,6,3.8,5.5,13.7c-0.9,0.5-1.8,1-2.6,1.8l-0.4,0.4L3,16.3c0.8,0.7,1.7,1.3,2.6,1.8
	c0.3,10,3.2,12.2,14.3,12.2c11.7,0,14.3-2.6,14.3-14.3C34.2,4.3,31.5,1.6,19.9,1.6z M13.5,13.8c0,0,0.9-0.3,4.3-0.5
	c3.2-0.1,5.4,0.6,7.8,2.5c-2.3,1.9-4.5,2.7-7.8,2.5c-3.5-0.1-4.4-0.4-4.4-0.4l-0.7-0.3v1.6c0,1.1,0.4,2.1,1.3,2.8
	c0.8,0.8,1.9,1.1,3,1c4.7-0.4,10.2-0.4,12.6,3.7H13.7c-2.7,0-5-2.2-5-5v-3.5l-0.3-0.1c-1.6-0.5-3.1-1.3-4.4-2.3
	c1.4-1.1,2.9-1.8,4.4-2.2l0.4-0.1V10c0-2.7,2.2-5,5-5h15.9C27.4,9,22,9.1,17,8.6c-1.1-0.1-2.2,0.3-3,1c-0.8,0.7-1.2,1.8-1.2,2.9V14
	L13.5,13.8z"/>
<path class="st0" d="M107,12.1c-0.9,0-1.8,0.4-2.3,1.2l-0.1-1.1H103v9.4h1.7v-3.2c0.5,0.6,1.3,1,2.2,1c1.8,0,3-1.4,3-3.6
	C110,13.6,108.8,12.2,107,12.1z M106.4,18c-1.1,0-1.8-0.8-1.8-2.2c0-1.3,0.7-2.2,1.8-2.2c1.1,0,1.8,0.8,1.8,2.2
	C108.2,17.2,107.5,18,106.4,18z M97.8,12.2c-2.1,0-3.6,1.4-3.6,3.6c0,2.2,1.4,3.7,3.6,3.6c2.1,0,3.6-1.4,3.6-3.6
	C101.4,13.6,100,12.2,97.8,12.2z M97.8,18c-1.2,0-1.9-0.8-1.9-2.2c0-1.4,0.7-2.2,1.9-2.2s1.9,0.8,1.9,2.2C99.7,17.2,99,18,97.8,18z
	 M87,12.3v1.5h2.5v5.5h1.7v-5.5h2.4v-1.5H87z M86.4,17.8c-0.3,0-0.4-0.2-0.4-0.4v-2.5h-1.2l1.8-2.7h-1.8L83,14.9H82v-5h-1.7v9.4H82
	v-2.8h2.4v1.4c0,1,0.5,1.5,1.5,1.5h0.8v-1.6H86.4z M77.4,12.2l-1.7,5.6h-0.4l-1.9-5.6h-1.8l2.1,5.6h-1c-0.5,0.5-0.7,1-0.7,1.7
	c0,1.3,0.9,2.2,2.2,2.2c1.2,0,2.1-0.7,2.7-2.6l2.3-6.8v-0.1H77.4z M75.2,19.5c-0.3,0.6-0.6,0.9-0.9,0.9c-0.5,0-0.8-0.4-0.8-0.8
	c0-0.1,0-0.3,0.1-0.5h1.7L75.2,19.5z M68,12.1c-0.9,0-1.8,0.4-2.3,1.2l-0.1-1.1h-1.5v9.4h1.7v-3.2c0.5,0.6,1.3,1,2.2,1
	c1.8,0,3-1.4,3-3.6C71,13.6,69.9,12.2,68,12.1z M67.5,18c-1.1,0-1.8-0.8-1.8-2.2c0-1.3,0.7-2.2,1.8-2.2c1.1,0,1.8,0.8,1.8,2.2
	C69.4,17.2,68.7,18,67.5,18z M56.2,12.3v1.5h2.5v5.5h1.7v-5.5h2.4v-1.5H56.2z M52.7,18c-1.1,0-1.8-0.8-1.8-2.2
	c0-1.3,0.7-2.2,1.8-2.2c0.8,0,1.3,0.4,1.6,1.2l1.6-0.5c-0.4-1.3-1.6-2.1-3.2-2.1c-2.1,0-3.6,1.4-3.6,3.6c0,2.2,1.4,3.7,3.6,3.6
	c1.6,0,2.8-0.8,3.2-2.1l-1.6-0.5C54,17.6,53.5,18,52.7,18z M45.8,12.3V15h-3v-2.7H41v7h1.7v-2.8h3v2.8h1.7v-7H45.8z M37,10.5v8.9
	h1.8v-8.9H37z"/>
</svg>
