<?xml version="1.0" encoding="utf-8"?>
<!-- Generator: Adobe Illustrator 25.2.3, SVG Export Plug-In . SVG Version: 6.00 Build 0)  -->
<svg version="1.1" id="Слой_1" xmlns="http://www.w3.org/2000/svg" xmlns:xlink="http://www.w3.org/1999/xlink" x="0px" y="0px"
	 viewBox="0 0 31.9 32" style="enable-background:new 0 0 31.9 32;" xml:space="preserve">
<style type="text/css">
	.st0{fill:#4E5B2F;}
	.st1{fill:#FFFFFF;}
</style>
<path class="st0" d="M17.6,1.7c-11,0-13.9,2.2-14.3,12.1c-0.9,0.5-1.8,1-2.6,1.8l-0.4,0.4l0.4,0.4c0.8,0.7,1.7,1.3,2.6,1.8
	c0.3,10,3.2,12.2,14.3,12.2c11.7,0,14.3-2.6,14.3-14.3S29.3,1.7,17.6,1.7z M1.8,15.9c0.5-0.4,1-0.7,1.6-1c0,0.4,0,0.7,0,1.1
	c0,0.3,0,0.6,0,1C2.8,16.6,2.2,16.3,1.8,15.9z"/>
<path class="st1" d="M27.3,26.8H11.4c-2.7,0-5-2.2-5-5v-3.5l-0.3-0.1c-1.6-0.5-3.1-1.3-4.4-2.3c1.4-1.1,2.9-1.8,4.4-2.2l0.4-0.1
	v-3.5c0-2.7,2.2-5,5-5h15.9c-2.3,4-7.6,4.1-12.6,3.6c-1.1-0.1-2.2,0.3-3,1c-0.8,0.7-1.2,1.8-1.2,2.9l0,1.5l0.6-0.2
	c0,0,0.9-0.3,4.3-0.5c3.2-0.1,5.4,0.6,7.8,2.5c-2.3,1.9-4.5,2.7-7.8,2.5C12,18.3,11.1,18,11.1,18l-0.7-0.3v1.6
	c0,1.1,0.4,2.1,1.3,2.8c0.8,0.8,1.9,1.1,3,1C19.4,22.7,24.9,22.7,27.3,26.8z"/>
</svg>
